<svg id="Layer_1" data-name="Layer 1" xmlns="http://www.w3.org/2000/svg" xmlns:xlink="http://www.w3.org/1999/xlink" viewBox="0 0 693 693"><defs><style>.cls-1,.cls-4,.cls-9{fill:none;}.cls-2{fill:url(#linear-gradient);}.cls-3{clip-path:url(#clip-path);}.cls-4{stroke:#4786c6;stroke-linecap:round;stroke-width:8px;}.cls-4,.cls-9{stroke-miterlimit:10;}.cls-5{fill:#4786c6;}.cls-6{fill:#f58f93;}.cls-7{fill:#5e98d1;}.cls-8{fill:#fbb040;}.cls-9{stroke:#f26970;stroke-width:4px;}</style><linearGradient id="linear-gradient" x1="600.96" y1="291.86" x2="321.08" y2="776.63" gradientTransform="translate(161.93 -104.9) rotate(15.71)" gradientUnits="userSpaceOnUse"><stop offset="0" stop-color="#f05057" stop-opacity="0.5"/><stop offset="0.66" stop-color="#f05057"/><stop offset="1" stop-color="#da484f"/></linearGradient><clipPath id="clip-path" transform="translate(-135.41 -117.79)"><rect class="cls-1" x="246.48" y="224.07" width="472.28" height="526.81" rx="52.97" transform="translate(-113.99 148.94) rotate(-15.71)"/></clipPath></defs><rect class="cls-2" x="259.1" y="309.01" width="403.84" height="450.47" rx="52.97" transform="translate(-262.88 27.05) rotate(-15.71)"/><rect class="cls-1" x="259.1" y="309.01" width="403.84" height="450.47" rx="52.97" transform="translate(-262.88 27.05) rotate(-15.71)"/><g class="cls-3"><image width="960" height="960" transform="translate(0 0) scale(0.72)" xlink:href="C:%5CUsers%5CDell%5CDesktop%5CLSC%5Cdigital.png"/></g><path class="cls-4" d="M175.38,230.44A19.24,19.24,0,0,1,145.77,255" transform="translate(-135.41 -117.79)"/><path class="cls-4" d="M609.14,784.83a19.24,19.24,0,1,1,29.61-24.58" transform="translate(-135.41 -117.79)"/><circle class="cls-5" cx="14.9" cy="113.25" r="8.17"/><circle class="cls-6" cx="630.62" cy="359.92" r="24.11"/><polygon class="cls-7" points="93.81 615.17 122.78 607.41 101.57 586.19 93.81 615.17"/><polygon class="cls-8" points="469.99 131.45 474.64 140.86 485.02 142.37 477.5 149.69 479.28 160.03 469.99 155.15 460.71 160.03 462.48 149.69 454.97 142.37 465.35 140.86 469.99 131.45"/><circle class="cls-9" cx="97.37" cy="257.71" r="63.64"/></svg>