<svg xmlns="http://www.w3.org/2000/svg" viewBox="0 0 500 362.66"><defs><style>.cls-1{fill:#e6e6e6;}.cls-2{fill:#e0e0e0;}.cls-3{fill:#f0f0f0;}.cls-12,.cls-13,.cls-17,.cls-18,.cls-19,.cls-20,.cls-28,.cls-30,.cls-4,.cls-9{fill:#fff;}.cls-5{fill:#ebebeb;}.cls-6{fill:#fafafa;}.cls-7{fill:#f5f5f5;}.cls-8{fill:#407bff;}.cls-9{opacity:0.9;}.cls-10,.cls-31{fill:#263238;}.cls-11,.cls-17,.cls-19{opacity:0.1;}.cls-12,.cls-14,.cls-26{opacity:0.2;}.cls-13,.cls-16,.cls-27{opacity:0.3;}.cls-15,.cls-18,.cls-31{opacity:0.4;}.cls-19,.cls-26{isolation:isolate;}.cls-20{opacity:0.5;}.cls-21{fill:#eec8c0;}.cls-22{fill:#ed893e;}.cls-23{fill:#c13b37;}.cls-24{fill:#a02724;}.cls-25{fill:#ff8b7b;}.cls-28{opacity:0.6;}.cls-29{fill:#fab27b;}.cls-30{opacity:0.7;}</style></defs><g id="Background_Complete" data-name="Background Complete"><path class="cls-1" d="M238.4,341.53H45.31a5.72,5.72,0,0,1-5.71-5.71V64.39a5.72,5.72,0,0,1,5.71-5.66H238.4a5.71,5.71,0,0,1,5.7,5.71h0V335.82A5.71,5.71,0,0,1,238.4,341.53ZM45.31,58.93a5.47,5.47,0,0,0-5.46,5.46V335.82a5.47,5.47,0,0,0,5.46,5.46H238.4a5.46,5.46,0,0,0,5.45-5.46V64.39a5.46,5.46,0,0,0-5.45-5.46Z" transform="translate(0 -58.73)"/><path class="cls-1" d="M454.7,341.53H261.6a5.71,5.71,0,0,1-5.7-5.71V64.39a5.71,5.71,0,0,1,5.7-5.66H454.7a5.71,5.71,0,0,1,5.7,5.66V335.82A5.71,5.71,0,0,1,454.7,341.53ZM261.6,58.93a5.46,5.46,0,0,0-5.45,5.46V335.82a5.46,5.46,0,0,0,5.45,5.46H454.7a5.48,5.48,0,0,0,5.47-5.46V64.39a5.48,5.48,0,0,0-5.47-5.46Z" transform="translate(0 -58.73)"/><rect class="cls-2" x="53.79" y="333.48" width="41.21" height="0.25"/><rect class="cls-2" x="137.67" y="331.48" width="41.33" height="0.25"/><rect class="cls-2" x="222.78" y="331.48" width="10" height="0.25"/><rect class="cls-2" x="86.58" y="340.02" width="46.25" height="0.25"/><rect class="cls-2" x="271.2" y="333.35" width="21.6" height="0.25"/><rect class="cls-2" x="301.7" y="333.35" width="27.93" height="0.25"/><rect class="cls-2" x="401.89" y="337.58" width="62.44" height="0.25"/><rect class="cls-2" y="323.67" width="500" height="0.25"/><path class="cls-3" d="M169.82,289h19.43V277.84a9.72,9.72,0,0,0-9.72-9.72h0a9.72,9.72,0,0,0-9.71,9.72Z" transform="translate(0 -58.73)"/><circle class="cls-4" cx="179.65" cy="219.62" r="8.2"/><circle class="cls-5" cx="179.77" cy="219.62" r="6.58"/><path class="cls-6" d="M179,278.5a.71.71,0,1,0,1.41,0,.71.71,0,1,0-1.41,0Z" transform="translate(0 -58.73)"/><polygon class="cls-6" points="179.79 220.03 182.8 217.2 182.5 216.89 179.78 219.46 174.89 215.14 174.61 215.46 179.79 220.03"/><circle class="cls-3" cx="82.53" cy="188.49" r="22.91" transform="translate(-109.11 54.84) rotate(-45)"/><path class="cls-4" d="M82.6,211.91a23.43,23.43,0,1,1,0-46.85v1a22.4,22.4,0,0,0,0,44.79Z" transform="translate(0 -58.73)"/><path class="cls-4" d="M82.6,211.91v-1a22.4,22.4,0,0,0,0-44.79v-1a23.43,23.43,0,0,1,0,46.85Z" transform="translate(0 -58.73)"/><path class="cls-4" d="M94.57,188.49h-1c0-7.59-3.85-17.75-11.22-22.48l.56-.87C90.55,170.07,94.57,180.62,94.57,188.49Z" transform="translate(0 -58.73)"/><path class="cls-4" d="M82.88,211.13l-.56-.87c7.37-4.72,11.22-14.88,11.22-22.47h1C94.57,195.66,90.55,206.21,82.88,211.13Z" transform="translate(0 -58.73)"/><path class="cls-4" d="M71.66,188.48h-1c0-7.87,4-18.42,11.69-23.34l.56.87C75.51,170.73,71.66,180.89,71.66,188.48Z" transform="translate(0 -58.73)"/><path class="cls-4" d="M82.32,211.13c-7.67-4.93-11.69-15.47-11.69-23.35h1c0,7.6,3.85,17.75,11.22,22.48Z" transform="translate(0 -58.73)"/><rect class="cls-4" x="82.08" y="106.84" width="1.03" height="45.82"/><rect class="cls-4" x="63.21" y="117.03" width="38.78" height="1.03"/><rect class="cls-4" x="59.7" y="129.63" width="45.8" height="1.03"/><rect class="cls-4" x="63.72" y="142.21" width="37.76" height="1.03"/><rect class="cls-7" x="352.44" y="33.17" width="5.57" height="159.45" transform="translate(468.11 -301.06) rotate(90)"/><path class="cls-2" d="M318,115.68H291.32v12.5h13.33a5.73,5.73,0,0,1,5.73-5.72H318Z" transform="translate(0 -58.73)"/><path class="cls-7" d="M305.94,115.68H286.49v12.5h6.11a5.72,5.72,0,0,1,5.72-5.72h7.62Z" transform="translate(0 -58.73)"/><path class="cls-5" d="M392.45,115.68h26.68v12.5H405.79a5.72,5.72,0,0,0-5.73-5.72h-7.61Z" transform="translate(0 -58.73)"/><path class="cls-7" d="M404.51,115.68H424v12.5h-6.11a5.72,5.72,0,0,0-5.72-5.72h-7.61Z" transform="translate(0 -58.73)"/><polygon class="cls-2" points="375.48 40.4 384.29 25.22 382.94 25.22 373.53 40.4 375.48 40.4"/><polygon class="cls-2" points="337.33 40.34 328.63 25.16 329.98 25.16 339.29 40.34 337.33 40.34"/><polygon class="cls-2" points="337.68 40.34 338.13 41.35 339.43 41.35 339.02 40.34 337.68 40.34"/><polygon class="cls-2" points="375.15 40.34 374.71 41.35 373.4 41.35 373.82 40.34 375.15 40.34"/><rect class="cls-2" x="335.42" y="47.31" width="5.41" height="3.37"/><rect class="cls-2" x="372.14" y="47.31" width="5.41" height="3.37"/><path class="cls-5" d="M379.44,107.53l-11.76,1.28a105.21,105.21,0,0,1-22.44,0l-11.76-1.28v-7.29L343,99a104.09,104.09,0,0,1,26.86,0l9.55,1.24Z" transform="translate(0 -58.73)"/><path class="cls-4" d="M340.31,104.09a2.18,2.18,0,1,1-2.18-2.18A2.18,2.18,0,0,1,340.31,104.09Z" transform="translate(0 -58.73)"/><circle class="cls-2" cx="338.13" cy="45.38" r="1.3"/><path class="cls-4" d="M350.46,104.11a.69.69,0,0,1-.69.69.69.69,0,0,1,0-1.38A.69.69,0,0,1,350.46,104.11Z" transform="translate(0 -58.73)"/><path class="cls-4" d="M352.92,104.11a.69.69,0,1,1-.69-.69A.69.69,0,0,1,352.92,104.11Z" transform="translate(0 -58.73)"/><path class="cls-4" d="M355.37,104.11a.69.69,0,1,1-.69-.69A.69.69,0,0,1,355.37,104.11Z" transform="translate(0 -58.73)"/><path class="cls-4" d="M357.83,104.11a.69.69,0,1,1-.69-.69A.69.69,0,0,1,357.83,104.11Z" transform="translate(0 -58.73)"/><path class="cls-4" d="M360.28,104.11a.69.69,0,1,1-.69-.69A.69.69,0,0,1,360.28,104.11Z" transform="translate(0 -58.73)"/><path class="cls-4" d="M362.74,104.11a.69.69,0,1,1-.69-.69A.69.69,0,0,1,362.74,104.11Z" transform="translate(0 -58.73)"/><path class="cls-4" d="M365.19,104.11a.69.69,0,1,1-.68-.69A.68.68,0,0,1,365.19,104.11Z" transform="translate(0 -58.73)"/><path class="cls-7" d="M133.46,131.76v6A18,18,0,0,1,143.71,142l4.27-4.27A24,24,0,0,0,133.46,131.76Z" transform="translate(0 -58.73)"/><path class="cls-3" d="M130.55,173.82A18.05,18.05,0,0,1,114,157.27h-6a24.08,24.08,0,0,0,22.59,22.59Z" transform="translate(0 -58.73)"/><path class="cls-2" d="M114,154.35a18.09,18.09,0,0,1,16.56-16.55v-6A24.09,24.09,0,0,0,108,154.35Z" transform="translate(0 -58.73)"/><path class="cls-2" d="M150,139.84l-4.27,4.27a18.06,18.06,0,0,1-12.31,29.71v6a24.09,24.09,0,0,0,16.58-40Z" transform="translate(0 -58.73)"/><rect class="cls-2" x="54.85" y="271.78" width="222.05" height="110.25" rx="19.67" transform="translate(331.75 595.07) rotate(180)"/><rect class="cls-7" x="66.55" y="272.59" width="222.05" height="110.25" rx="19.67" transform="translate(355.15 596.7) rotate(180)"/><path class="cls-2" d="M76.73,283H277.11a0,0,0,0,1,0,0v27.39a13.74,13.74,0,0,1-13.74,13.74H90.47a13.74,13.74,0,0,1-13.74-13.74V283A0,0,0,0,1,76.73,283Z" transform="translate(353.84 548.37) rotate(180)"/><path class="cls-2" d="M90.47,329.68H263.38a13.74,13.74,0,0,1,13.74,13.74v27.39a0,0,0,0,1,0,0H76.73a0,0,0,0,1,0,0V343.42A13.74,13.74,0,0,1,90.47,329.68Z" transform="translate(353.84 641.76) rotate(180)"/><rect class="cls-1" x="129.95" y="232.22" width="28.4" height="33.44"/><rect class="cls-7" x="158.35" y="232.22" width="7.27" height="33.44"/><rect class="cls-1" x="122.5" y="227.06" width="21.33" height="38.6"/><rect class="cls-7" x="143.83" y="227.06" width="6.17" height="38.6"/><rect class="cls-5" x="119.56" y="232.22" width="17.99" height="33.44"/><rect class="cls-7" x="137.55" y="232.22" width="4.11" height="33.44"/><rect class="cls-1" x="99.24" y="237.88" width="23.59" height="27.78"/><rect class="cls-7" x="122.83" y="237.88" width="6.04" height="27.78"/><rect class="cls-1" x="93.05" y="233.59" width="17.72" height="32.07"/><rect class="cls-7" x="110.77" y="233.59" width="5.12" height="32.07"/><rect class="cls-1" x="88.34" y="237.88" width="17.22" height="27.78"/><rect class="cls-3" x="105.56" y="237.88" width="3.41" height="27.78"/><rect class="cls-1" x="218.33" y="277.38" width="28.4" height="33.44"/><rect class="cls-7" x="246.73" y="277.38" width="7.27" height="33.44"/><rect class="cls-1" x="210.88" y="272.22" width="21.33" height="38.6"/><rect class="cls-7" x="232.21" y="272.22" width="6.17" height="38.6"/><rect class="cls-1" x="121.44" y="277.38" width="28.4" height="33.44"/><rect class="cls-7" x="149.84" y="277.38" width="7.27" height="33.44"/><rect class="cls-1" x="113.99" y="272.22" width="21.33" height="38.6"/><rect class="cls-7" x="135.32" y="272.22" width="6.17" height="38.6"/><rect class="cls-5" x="207.94" y="277.38" width="17.99" height="33.44"/><rect class="cls-7" x="225.93" y="277.38" width="4.11" height="33.44"/><rect class="cls-1" x="187.62" y="283.03" width="23.59" height="27.78"/><rect class="cls-7" x="211.21" y="283.03" width="6.04" height="27.78"/><rect class="cls-1" x="181.43" y="278.75" width="17.72" height="32.07"/><rect class="cls-7" x="199.14" y="278.75" width="5.12" height="32.07"/><rect class="cls-1" x="176.71" y="283.03" width="17.22" height="27.78"/><rect class="cls-3" x="193.94" y="283.03" width="3.41" height="27.78"/><path class="cls-7" d="M443.89,256.93H332.38c0,5.58,3.22,10.17,7.31,10.42,12,.73,30.42,3.32,36.27,12.36,10.9,16.86,9.84,76.07-3.21,89.78-4.1,4.3-16,12.84-16,12.84h62.83s-11.15-8.71-15-12.84c-13-13.82-13.36-73-2.41-89.78,5.62-8.61,22.89-11.39,34.49-12.26C440.7,267.14,443.89,262.51,443.89,256.93Z" transform="translate(0 -58.73)"/><path class="cls-1" d="M346.2,267.9c11.32,1.24,24.89,4.29,29.76,11.81a33.77,33.77,0,0,1,3.68,8.71h18.73a34.26,34.26,0,0,1,3.75-8.71c4.88-7.48,18.57-10.56,29.68-11.81Z" transform="translate(0 -58.73)"/><polygon class="cls-5" points="396.39 198.27 394.88 174.63 416.86 174.63 418.37 198.27 396.39 198.27"/><polygon class="cls-2" points="396.39 198.27 394.88 174.63 393.69 174.63 395.21 198.27 396.39 198.27"/><polygon class="cls-3" points="398.48 195.86 397.27 177.04 414.77 177.04 415.98 195.86 398.48 195.86"/><polygon class="cls-6" points="399.82 194.31 398.81 178.59 413.43 178.59 414.44 194.31 399.82 194.31"/><polygon class="cls-1" points="389.26 198.2 367.18 198.2 369.63 160.01 391.71 160.01 389.26 198.2"/><polygon class="cls-2" points="389.26 198.2 390.31 198.2 392.76 160.01 391.71 160.01 389.26 198.2"/><polygon class="cls-3" points="387.26 194.31 369.68 194.31 371.63 163.9 389.21 163.9 387.26 194.31"/><polygon class="cls-6" points="385.97 191.8 371.29 191.8 372.92 166.41 387.6 166.41 385.97 191.8"/><path class="cls-5" d="M378.56,236.56h0a2.11,2.11,0,0,0,3.61,0h0a4.41,4.41,0,0,0,0-4.92h0a2.11,2.11,0,0,0-3.61,0h0A4.41,4.41,0,0,0,378.56,236.56Z" transform="translate(0 -58.73)"/><path class="cls-3" d="M379.64,240.83h0a1.55,1.55,0,0,0-2.65,0h0c-1.18,1.61-.34,4.35,1.33,4.35h0C380,245.18,380.82,242.44,379.64,240.83Z" transform="translate(0 -58.73)"/></g><g id="Background_Simple" data-name="Background Simple"><path class="cls-8" d="M104.44,342.55C108,352.23,117,359.78,127,362.34c15,3.87,30-5,45-9.07,26.64-7.23,54.73.79,81.34,8.11s55.47,13.88,81.25,4c22.13-8.46,38.36-27.91,49.58-48.77,21.3-39.65,27.59-85.52,30.71-130.42,1.39-20,2.16-40.65-4.17-59.71S389.54,90,369.83,86.17c-18.92-3.69-38.06,5.57-53.35,17.31s-28.55,26.27-45.24,35.91c-24.32,14-54,16.38-81.75,12.05-17.18-2.68-45.83-35.25-75-23.21C83.46,141,69.94,249.3,104.44,342.55Z" transform="translate(0 -58.73)"/><path class="cls-9" d="M104.44,342.55C108,352.23,117,359.78,127,362.34c15,3.87,30-5,45-9.07,26.64-7.23,54.73.79,81.34,8.11s55.47,13.88,81.25,4c22.13-8.46,38.36-27.91,49.58-48.77,21.3-39.65,27.59-85.52,30.71-130.42,1.39-20,2.16-40.65-4.17-59.71S389.54,90,369.83,86.17c-18.92-3.69-38.06,5.57-53.35,17.31s-28.55,26.27-45.24,35.91c-24.32,14-54,16.38-81.75,12.05-17.18-2.68-45.83-35.25-75-23.21C83.46,141,69.94,249.3,104.44,342.55Z" transform="translate(0 -58.73)"/></g><g id="Shadows"><g id="Shadow--inject-214"><ellipse id="path--inject-214" class="cls-7" cx="250" cy="351.34" rx="193.89" ry="11.32"/></g></g><g id="Plants"><path class="cls-10" d="M391.11,335.67c-10,7.71-12.89,24.6-13.4,36.5,0,1.09-1.73,1.09-1.69,0,.53-12.6,3.4-29.61,14.24-38,.86-.67,1.71.8.85,1.46Z" transform="translate(0 -58.73)"/><path class="cls-10" d="M367.89,327c2.55-.29,4.7,2.32,5.81,4.23,5.75,9.95,3.53,25,2.44,35.65-.11,1.07-1.81,1.08-1.7,0,1.06-10.39,3-23.93-1.7-33.81-.81-1.69-2.53-4.64-4.85-4.37-1.08.12-1.07-1.57,0-1.7Z" transform="translate(0 -58.73)"/><path class="cls-10" d="M361.69,340.7c10.7-2.64,12,21.09,12.35,26.21.07,1.09-1.62,1.08-1.69,0-.43-6.93-.77-16.85-5.78-22.4-1-1.12-2.77-2.59-4.43-2.17-1.06.26-1.51-1.38-.45-1.64Z" transform="translate(0 -58.73)"/><path class="cls-10" d="M393.41,352.22c-8.85-6.56-11.73,10.66-12.22,15.63-.11,1.07-1.8,1.08-1.69,0,.55-5.63,1.41-15.84,7.91-18.2a7.57,7.57,0,0,1,6.85,1.11c.87.64,0,2.11-.85,1.46Z" transform="translate(0 -58.73)"/><path class="cls-10" d="M358.21,355.33a6.27,6.27,0,0,1,5.27-1.92c5.4.9,6.89,9,7.71,13.27.21,1.07-1.42,1.52-1.63.45-.71-3.64-4.11-16.72-10.15-10.61a.85.85,0,0,1-1.2-1.19Z" transform="translate(0 -58.73)"/><path class="cls-10" d="M390.08,410.82H364.49A20.71,20.71,0,0,1,357.14,395c0-7.26,4.08-29,4.08-29h32.13s4.08,21.77,4.08,29A20.71,20.71,0,0,1,390.08,410.82Z" transform="translate(0 -58.73)"/><path class="cls-8" d="M394.16,360.57c-7.72,0-15.28-3.13-16.87-7s3.36-7,11.08-7a29.93,29.93,0,0,1,7.37.94,21.58,21.58,0,0,1,6.6-.94c7.72,0,15.27,3.13,16.87,7s-3.36,7-11.08,7Z" transform="translate(0 -58.73)"/><path class="cls-11" d="M394.16,360.57c-7.72,0-15.28-3.13-16.87-7s3.36-7,11.08-7a29.93,29.93,0,0,1,7.37.94,21.58,21.58,0,0,1,6.6-.94c7.72,0,15.27,3.13,16.87,7s-3.36,7-11.08,7Z" transform="translate(0 -58.73)"/><path class="cls-8" d="M343.79,345.61c-6.31,0-8.87-2.56-5.71-5.72s10.83-5.71,17.15-5.71a13.37,13.37,0,0,1,4.94.77,29.92,29.92,0,0,1,6.49-.77c6.31,0,8.87,2.56,5.71,5.71s-10.83,5.72-17.14,5.72Z" transform="translate(0 -58.73)"/><path class="cls-8" d="M401.86,339.89c-7.95,0-17.6-3.22-21.58-7.19s-.75-7.19,7.2-7.19a38.07,38.07,0,0,1,8.16,1,16.9,16.9,0,0,1,6.22-1c7.94,0,17.6,3.22,21.57,7.19s.75,7.19-7.19,7.19Z" transform="translate(0 -58.73)"/><path class="cls-12" d="M401.86,339.89c-7.95,0-17.6-3.22-21.58-7.19s-.75-7.19,7.2-7.19a38.07,38.07,0,0,1,8.16,1,16.9,16.9,0,0,1,6.22-1c7.94,0,17.6,3.22,21.57,7.19s.75,7.19-7.19,7.19Z" transform="translate(0 -58.73)"/><path class="cls-8" d="M357.7,330.61c-4,0-6.53-1.61-5.7-3.6s4.71-3.59,8.68-3.59a10.86,10.86,0,0,1,3.39.48,15.22,15.22,0,0,1,3.8-.48c4,0,6.52,1.61,5.7,3.59s-4.71,3.6-8.68,3.6Z" transform="translate(0 -58.73)"/><path class="cls-13" d="M357.7,330.61c-4,0-6.53-1.61-5.7-3.6s4.71-3.59,8.68-3.59a10.86,10.86,0,0,1,3.39.48,15.22,15.22,0,0,1,3.8-.48c4,0,6.52,1.61,5.7,3.59s-4.71,3.6-8.68,3.6Z" transform="translate(0 -58.73)"/><path class="cls-8" d="M353.12,359.37c-4,0-7.86-1.61-8.68-3.59s1.73-3.6,5.7-3.6a15.22,15.22,0,0,1,3.8.49,10.84,10.84,0,0,1,3.39-.49c4,0,7.86,1.61,8.68,3.6s-1.73,3.59-5.7,3.59Z" transform="translate(0 -58.73)"/><path class="cls-14" d="M353.12,359.37c-4,0-7.86-1.61-8.68-3.59s1.73-3.6,5.7-3.6a15.22,15.22,0,0,1,3.8.49,10.84,10.84,0,0,1,3.39-.49c4,0,7.86,1.61,8.68,3.6s-1.73,3.59-5.7,3.59Z" transform="translate(0 -58.73)"/><path class="cls-8" d="M360.49,370c.43-2.44.73-4,.73-4h32.13s.3,1.59.73,4Z" transform="translate(0 -58.73)"/><path class="cls-6" d="M359.09,336.34s-8.81,2.94-11.6,7.78C347.49,344.12,347.93,337.07,359.09,336.34Z" transform="translate(0 -58.73)"/><path class="cls-6" d="M363.24,324.81a13,13,0,0,0-3.69,3.18A4.5,4.5,0,0,1,363.24,324.81Z" transform="translate(0 -58.73)"/><path class="cls-6" d="M397.43,328s9.55,3.5,15.43,10.11A19.84,19.84,0,0,0,397.43,328Z" transform="translate(0 -58.73)"/><path class="cls-1" d="M397.43,349.26a24,24,0,0,1,10,7.79S405.66,350.43,397.43,349.26Z" transform="translate(0 -58.73)"/><path class="cls-6" d="M354.09,354.11a4.7,4.7,0,0,1,2.5,3.82A8.43,8.43,0,0,1,354.09,354.11Z" transform="translate(0 -58.73)"/><path class="cls-8" d="M107.55,221a3.36,3.36,0,0,1,3.57-1.78,3.53,3.53,0,0,1,2.66,3.09,3,3,0,0,1,3.4-.09,3.38,3.38,0,0,1,1.36,3.28,2.51,2.51,0,0,1,3.63.74,2.81,2.81,0,0,1-1.11,3.72,1.8,1.8,0,0,1-.09,3.58,1.94,1.94,0,0,1,1.78,1.7,2,2,0,0,1-1.34,2.11,1.63,1.63,0,0,1,.39,2.52,1.47,1.47,0,0,1-2.32-.73.48.48,0,0,1-.76.12.54.54,0,0,1,.15-.8.9.9,0,0,1-1.54-.39c.3,1.6-1.61,3.12-3,2.35a1.36,1.36,0,0,1-.89,1.82,3,3,0,0,1-2.16-.42,4.77,4.77,0,0,0-2.12-.71,6.5,6.5,0,0,0-1.89.52,5.71,5.71,0,0,1-5.78-1.52,2.45,2.45,0,0,1-4.11-.63A1.85,1.85,0,0,1,95.78,241,1.82,1.82,0,0,1,94,239.68c0,.35,0,.7-.05,1.06-1.43.34-2.85-1.52-2.24-2.93a2.25,2.25,0,0,1-2.13-1.95,2.32,2.32,0,0,1,1.59-2.45,4.33,4.33,0,0,1-.08-8.22,2.06,2.06,0,0,1,2,.27,1.25,1.25,0,0,1,0,1.87,4,4,0,0,1,1.7-4.47,3.53,3.53,0,0,1,4.46.95,2.24,2.24,0,0,1,0-2.47,2,2,0,0,1,2.23-.75,2.23,2.23,0,0,1,2.41-1.83,2.33,2.33,0,0,1,1.82,2.49,1.13,1.13,0,0,1,2-.39C108.34,220.69,107.55,221,107.55,221Z" transform="translate(0 -58.73)"/><g class="cls-15"><path class="cls-6" d="M107.15,231.71a2,2,0,0,1,1.53-.37,1.41,1.41,0,0,1,1.12,1,1.09,1.09,0,0,1-.75,1.26c-.64.16-1.28-.37-1.93-.28a4.31,4.31,0,0,0-.67.21,3.33,3.33,0,0,1-2.64-.94,3,3,0,0,1-.73-.7,1,1,0,0,1-.08-1,1.28,1.28,0,0,1,1.28-.42,5.14,5.14,0,0,1,2.6,1.09c0-.15,0-.3-.08-.45Z" transform="translate(0 -58.73)"/><path class="cls-6" d="M93.56,230.9a2.69,2.69,0,0,1,.82-.43.75.75,0,0,1,.61,1.36,2.46,2.46,0,0,1-1.19.41c-.43.06-1,.08-1.19-.3a.75.75,0,0,1,.2-.86,2.26,2.26,0,0,1,.85-.42Z" transform="translate(0 -58.73)"/><path class="cls-6" d="M115,223.84a3,3,0,0,1,1.74,2.07c.06.28,0,.63-.19.78a.8.8,0,0,1-.59,0l-2.49-.59a3.43,3.43,0,0,1,1.12.59,1.22,1.22,0,0,1,.43,1.14,1.16,1.16,0,0,1-1.15.78,2.5,2.5,0,0,1-1.37-.55,1.76,1.76,0,0,1-.87-1.27c0-.54.67-1,1.08-.69a9.22,9.22,0,0,1-2.67-1.21,2.48,2.48,0,0,1-.78-.73,1,1,0,0,1-.07-1c.85-1.55,1.92.72,2.44.92C112.64,224.46,113.76,223.31,115,223.84Z" transform="translate(0 -58.73)"/><path class="cls-6" d="M118.89,230.43a.85.85,0,0,1-.22.86.53.53,0,0,1-.8-.16,2.77,2.77,0,0,1,1.5.84c.34.47.26,1.28-.29,1.46a1.32,1.32,0,0,1-1-.23,18.28,18.28,0,0,1-2.56-1.69c.24.57-.35,1.22-1,1.27a3,3,0,0,1-1.73-.6c-.65-.4-1.39-1-1.22-1.75a1.27,1.27,0,0,1,1.61-.74,3.66,3.66,0,0,1,1.55,1.19c-.34-.5.15-1.26.76-1.34a1.84,1.84,0,0,1,1.56.72c-.69-.38-.85-1.37.08-1.49C117.72,228.7,118.74,229.93,118.89,230.43Z" transform="translate(0 -58.73)"/><path class="cls-6" d="M99.91,228.21a1,1,0,1,1,.5,1.92,1.6,1.6,0,0,1,1.06.55.86.86,0,0,1,.22.62.76.76,0,0,1-.75.57,2.2,2.2,0,0,1-1-.27,1.84,1.84,0,0,1,1,.27.62.62,0,0,1,.14.88.83.83,0,0,1-.8.09,3.91,3.91,0,0,1-1.62-.92,1.61,1.61,0,0,1-1.37.58.94.94,0,0,1-.78-1.12,1,1,0,0,1,.84-.61,2.66,2.66,0,0,1,1.08.17,2,2,0,0,1-.86-1c-.13-.42.15-1,.59-.94s.74.7,1.13.94C99.76,229.54,98.86,228.6,99.91,228.21Z" transform="translate(0 -58.73)"/><path class="cls-6" d="M108.77,226.16a2,2,0,0,1,.71,1.8,2.07,2.07,0,0,1-1.06,1.84,1.7,1.7,0,0,1-2.19-1.32,2.4,2.4,0,0,1,1.34-2.4A1.31,1.31,0,0,1,108.77,226.16Z" transform="translate(0 -58.73)"/><path class="cls-6" d="M102.49,225.36l-.23.2a1.12,1.12,0,1,1,0,1.4,1.68,1.68,0,0,1-2-.37,1.28,1.28,0,0,1,.27-1.87,1,1,0,0,1,1.5.89l.27-.3Z" transform="translate(0 -58.73)"/><path class="cls-6" d="M95.57,226.48a3.68,3.68,0,0,1,1.07,1.5,1.24,1.24,0,0,1-.71,1.53c-.6.15-1.17-.35-1.52-.86a1.87,1.87,0,0,1-.36-1.58c.17-.53.94-.84,1.32-.43Z" transform="translate(0 -58.73)"/><path class="cls-6" d="M105.55,222.84a1,1,0,0,1,1.41-.39,1.25,1.25,0,0,1,.44,1.47,1.57,1.57,0,0,1-1.28.92c-.68.08-1.49-.47-1.33-1.14a1.49,1.49,0,0,1-1.31.49,3.53,3.53,0,0,1-1.35-.51c-.57-.33-1.18-.84-1.12-1.49a1.16,1.16,0,0,1,1.07-1,2,2,0,0,1,1.44.54,11.88,11.88,0,0,0,.92.83,1.15,1.15,0,0,0,1.16.17Z" transform="translate(0 -58.73)"/></g><polygon class="cls-8" points="97.02 195 114.19 195 115.87 177.69 95.34 177.69 97.02 195"/><polygon class="cls-16" points="97.02 195 114.19 195 115.87 177.69 95.34 177.69 97.02 195"/><polygon class="cls-6" points="94.01 178.59 117.37 178.59 117.79 176.29 93.59 176.29 94.01 178.59"/></g><g id="Desk"><path class="cls-10" d="M123.31,264.58h7.52l.22,144.06a2.74,2.74,0,0,1-2.73,2.74h0a2.73,2.73,0,0,1-2.73-2.7Z" transform="translate(0 -58.73)"/><path class="cls-12" d="M123.31,264.58h7.52l.22,144.06a2.74,2.74,0,0,1-2.73,2.74h0a2.73,2.73,0,0,1-2.73-2.7Z" transform="translate(0 -58.73)"/><path class="cls-10" d="M82.18,264.58h7.53l.21,144.06a2.73,2.73,0,0,1-2.73,2.74h0a2.73,2.73,0,0,1-2.73-2.7Z" transform="translate(0 -58.73)"/><path class="cls-12" d="M82.18,264.58h7.53l.21,144.06a2.73,2.73,0,0,1-2.73,2.74h0a2.73,2.73,0,0,1-2.73-2.7Z" transform="translate(0 -58.73)"/><path class="cls-10" d="M302.19,264.58h7.53l.21,144.06a2.73,2.73,0,0,1-2.73,2.74h0a2.73,2.73,0,0,1-2.73-2.7Z" transform="translate(0 -58.73)"/><path class="cls-12" d="M302.19,264.58h7.53l.21,144.06a2.73,2.73,0,0,1-2.73,2.74h0a2.73,2.73,0,0,1-2.73-2.7Z" transform="translate(0 -58.73)"/><path class="cls-10" d="M261.07,264.58h7.52l.22,144.06a2.74,2.74,0,0,1-2.73,2.74h0a2.74,2.74,0,0,1-2.74-2.7Z" transform="translate(0 -58.73)"/><path class="cls-12" d="M261.07,264.58h7.52l.22,144.06a2.74,2.74,0,0,1-2.73,2.74h0a2.74,2.74,0,0,1-2.74-2.7Z" transform="translate(0 -58.73)"/><polygon class="cls-8" points="82.48 232.85 309.01 231.16 309.01 205.85 82.43 205.85 82.48 232.85"/><polygon class="cls-16" points="123.31 206.04 123.73 232.53 82.48 232.85 82.43 205.85 123.31 206.04"/><path class="cls-10" d="M317.83,258.51h0c0-3.41-1.27-6.17-2.83-6.18H79c-1.56,0-2.83,2.77-2.83,6.18h0c0,3.4,1.27,6.16,2.83,6.18H315C316.56,264.67,317.83,261.91,317.83,258.51Z" transform="translate(0 -58.73)"/><path class="cls-17" d="M317.83,258.51h0c0-3.41-1.27-6.17-2.83-6.18H79c-1.56,0-2.83,2.77-2.83,6.18h0c0,3.4,1.27,6.16,2.83,6.18H315C316.56,264.67,317.83,261.91,317.83,258.51Z" transform="translate(0 -58.73)"/><path class="cls-16" d="M137.09,258.51h0c0-3.41-1.27-6.17-2.84-6.18H79c-1.56,0-2.83,2.77-2.83,6.18h0c0,3.4,1.27,6.16,2.83,6.18h55.24C135.82,264.67,137.08,261.91,137.09,258.51Z" transform="translate(0 -58.73)"/></g><g id="Speech_bubble" data-name="Speech bubble"><path class="cls-8" d="M231.08,135.57a2.73,2.73,0,0,1-2.73-2.73v-6.73H227a3.51,3.51,0,0,1-3.51-3.51V90.73a3.51,3.51,0,0,1,3.5-3.49h49.74a3.5,3.5,0,0,1,3.5,3.5V122.6a3.51,3.51,0,0,1-3.51,3.51h-32.5L232.72,135A2.7,2.7,0,0,1,231.08,135.57ZM227,88.24a2.51,2.51,0,0,0-2.5,2.49V122.6a2.52,2.52,0,0,0,2.51,2.51h2.32v7.73a1.73,1.73,0,0,0,1.73,1.73,1.77,1.77,0,0,0,1-.34l11.79-9.12h32.84a2.52,2.52,0,0,0,2.51-2.51V90.74a2.5,2.5,0,0,0-2.5-2.5H227Z" transform="translate(0 -58.73)"/><rect class="cls-8" x="242.98" y="24.53" width="6.23" height="0.76"/><path class="cls-8" d="M220.08,92.24h-.77V88.48a5.24,5.24,0,0,1,5.24-5.23h13.89V84H224.55a4.47,4.47,0,0,0-4.47,4.47Z" transform="translate(0 -58.73)"/><circle class="cls-8" cx="240.65" cy="47.38" r="3.3"/><path class="cls-8" d="M255.08,106.11a3.31,3.31,0,1,1-3.31-3.3A3.31,3.31,0,0,1,255.08,106.11Z" transform="translate(0 -58.73)"/><circle class="cls-8" cx="262.9" cy="47.38" r="3.3"/></g><g id="Character_1" data-name="Character 1"><path class="cls-8" d="M142,186.47l4-.19,5.57,61.57h-4.21c-2.11-.2-2.6-2.56-3.19-7l-3.9-43C139.29,187.66,141,186.47,142,186.47Z" transform="translate(0 -58.73)"/><path class="cls-16" d="M142,186.47l4-.19,5.57,61.57h-4.21c-2.11-.2-2.6-2.56-3.19-7l-3.9-43C139.29,187.66,141,186.47,142,186.47Z" transform="translate(0 -58.73)"/><path class="cls-8" d="M148.29,247.85h83.44a1.63,1.63,0,0,0,1.49-1.93L228,188.21a2,2,0,0,0-1.85-1.93H142.71a1.63,1.63,0,0,0-1.49,1.93l5.22,57.71A2,2,0,0,0,148.29,247.85Z" transform="translate(0 -58.73)"/><polygon class="cls-8" points="151.49 181.83 227.27 181.83 223.07 133.79 147.29 133.79 151.49 181.83"/><path class="cls-10" d="M152.53,244.32h74.68a3.46,3.46,0,0,0,3.5-3.84l-4.18-47.74a4.27,4.27,0,0,0-4.17-3.83H147.68a3.47,3.47,0,0,0-3.5,3.83l4.18,47.74A4.27,4.27,0,0,0,152.53,244.32Z" transform="translate(0 -58.73)"/><polygon class="cls-8" points="151.49 181.83 227.27 181.83 223.07 133.79 147.29 133.79 151.49 181.83"/><polygon class="cls-18" points="151.49 181.83 227.27 181.83 223.07 133.79 147.29 133.79 151.49 181.83"/><polygon class="cls-19" points="173.29 130.2 158.49 185.56 163.47 185.56 178.11 130.2 173.29 130.2"/><polygon class="cls-19" points="180.98 130.2 166.18 185.56 176.05 185.56 190.69 130.2 180.98 130.2"/><path class="cls-8" d="M158.21,206.85a3.33,3.33,0,0,1-3.37,3.84,4.47,4.47,0,0,1-4.31-3.84A3.33,3.33,0,0,1,153.9,203,4.47,4.47,0,0,1,158.21,206.85Z" transform="translate(0 -58.73)"/><path class="cls-16" d="M158.21,206.85a3.33,3.33,0,0,1-3.37,3.84,4.47,4.47,0,0,1-4.31-3.84A3.33,3.33,0,0,1,153.9,203,4.47,4.47,0,0,1,158.21,206.85Z" transform="translate(0 -58.73)"/><path class="cls-4" d="M154.84,210.69A3.46,3.46,0,0,0,157,210l-.36-1.2a1.1,1.1,0,0,0-1-.79h-.46l-.06-.5a1.42,1.42,0,0,0,.67-1.47,1.78,1.78,0,0,0-1.64-1.61,1.33,1.33,0,0,0-1.24,1.61,1.88,1.88,0,0,0,1,1.47l.06.5h-.46a.82.82,0,0,0-.84.79l-.07,1.2A4.29,4.29,0,0,0,154.84,210.69Z" transform="translate(0 -58.73)"/><path class="cls-4" d="M161,206.12h15.1c.7,0,.56-1.08-.13-1.08H160.81c-.69,0-.56,1.08.14,1.08Z" transform="translate(0 -58.73)"/><path class="cls-4" d="M161.26,208.66h19.9c.46,0,.37-.72-.09-.72h-19.9c-.46,0-.38.72.09.72Z" transform="translate(0 -58.73)"/><path class="cls-10" d="M184.9,208.3a.72.72,0,0,1-.74.84,1,1,0,0,1-.95-.84.73.73,0,0,1,.74-.85A1,1,0,0,1,184.9,208.3Z" transform="translate(0 -58.73)"/><path class="cls-20" d="M184.9,208.3a.72.72,0,0,1-.74.84,1,1,0,0,1-.95-.84.73.73,0,0,1,.74-.85A1,1,0,0,1,184.9,208.3Z" transform="translate(0 -58.73)"/><polygon class="cls-8" points="147.29 133.79 147.66 138.09 223.44 138.09 223.07 133.79 147.29 133.79"/><path class="cls-4" d="M150.77,194.43a.79.79,0,0,1-.8.87,1,1,0,0,1-.94-.87.78.78,0,0,1,.79-.86A1,1,0,0,1,150.77,194.43Z" transform="translate(0 -58.73)"/><path class="cls-4" d="M153.05,194.43a.78.78,0,0,1-.79.87,1,1,0,0,1-.94-.87.78.78,0,0,1,.79-.86A1,1,0,0,1,153.05,194.43Z" transform="translate(0 -58.73)"/><path class="cls-4" d="M155.34,194.43a.79.79,0,0,1-.79.87,1,1,0,0,1-1-.87.78.78,0,0,1,.79-.86A1,1,0,0,1,155.34,194.43Z" transform="translate(0 -58.73)"/><rect class="cls-8" x="145.72" y="189.29" width="88.68" height="4.7" rx="1.81"/><rect class="cls-16" x="145.72" y="189.29" width="88.68" height="4.7" rx="1.81"/><path class="cls-8" d="M179.47,189.29h87.95a0,0,0,0,1,0,0v1.07a3.62,3.62,0,0,1-3.62,3.62h-80.7a3.62,3.62,0,0,1-3.62-3.62v-1.07A0,0,0,0,1,179.47,189.29Z"/><path class="cls-18" d="M179.47,189.29h87.95a0,0,0,0,1,0,0v1.07a3.62,3.62,0,0,1-3.62,3.62h-80.7a3.62,3.62,0,0,1-3.62-3.62v-1.07A0,0,0,0,1,179.47,189.29Z"/><path class="cls-16" d="M219.1,248.15a2.36,2.36,0,0,0,2.35,2.35h10.76a2.35,2.35,0,0,0,2.35-2.35Z" transform="translate(0 -58.73)"/><polygon class="cls-8" points="227.27 181.94 151.55 181.94 151.14 177.26 226.86 177.26 227.27 181.94"/><line class="cls-10" x1="164.5" y1="179.69" x2="217.11" y2="179.69"/><polygon class="cls-4" points="217.12 179.89 164.52 179.89 164.49 179.48 217.09 179.48 217.12 179.89"/><path class="cls-4" d="M218.61,238.65c0,.2-.11.36-.41.36a.75.75,0,0,1-.43-.13l.08-.16a.52.52,0,0,0,.33.11c.15,0,.23-.06.22-.17s-.08-.17-.31-.17h-.27v-.6h.65v.17H218v.26h.11C218.45,238.32,218.59,238.46,218.61,238.65Z" transform="translate(0 -58.73)"/><path class="cls-4" d="M218.68,238.27a.12.12,0,0,1,.12-.13.13.13,0,0,1,.14.13.11.11,0,0,1-.11.13A.14.14,0,0,1,218.68,238.27Zm.06.6a.11.11,0,0,1,.12-.13.14.14,0,0,1,.14.13.12.12,0,0,1-.12.13A.13.13,0,0,1,218.74,238.87Z" transform="translate(0 -58.73)"/><path class="cls-4" d="M219.09,238.44c0-.36.15-.57.41-.57s.48.21.52.57-.15.57-.42.57A.55.55,0,0,1,219.09,238.44Zm.72,0c0-.27-.14-.39-.29-.39s-.25.12-.22.39.14.39.29.39S219.83,238.71,219.81,238.44Z" transform="translate(0 -58.73)"/><path class="cls-4" d="M220.15,238.44c0-.36.15-.57.42-.57a.55.55,0,0,1,.51.57c0,.36-.15.57-.41.57S220.19,238.8,220.15,238.44Zm.72,0c0-.27-.14-.39-.29-.39s-.24.12-.22.39.14.39.29.39S220.89,238.71,220.87,238.44Z" transform="translate(0 -58.73)"/><path class="cls-4" d="M153.9,238.82l0,.17h-.82v-.13l.4-.42a.3.3,0,0,0,.11-.23c0-.1-.08-.16-.22-.16a.29.29,0,0,0-.25.12l-.15-.12a.46.46,0,0,1,.4-.18c.24,0,.41.12.42.32a.41.41,0,0,1-.15.35l-.27.28Z" transform="translate(0 -58.73)"/><path class="cls-4" d="M154,238.27a.11.11,0,0,1,.11-.13.14.14,0,0,1,.15.13.12.12,0,0,1-.12.13A.13.13,0,0,1,154,238.27Zm.05.6a.11.11,0,0,1,.12-.13.14.14,0,0,1,.14.13.12.12,0,0,1-.12.13A.14.14,0,0,1,154,238.87Z" transform="translate(0 -58.73)"/><path class="cls-4" d="M155.2,238.65c0,.2-.11.36-.41.36a.75.75,0,0,1-.43-.13l.08-.16a.52.52,0,0,0,.33.11c.15,0,.23-.06.22-.17s-.08-.17-.31-.17h-.27v-.6h.65l0,.17h-.48v.26h.11C155,238.32,155.18,238.46,155.2,238.65Z" transform="translate(0 -58.73)"/><path class="cls-4" d="M155.3,238.44c0-.36.14-.57.41-.57a.55.55,0,0,1,.51.57c0,.36-.15.57-.41.57S155.33,238.8,155.3,238.44Zm.71,0c0-.27-.14-.39-.29-.39s-.24.12-.22.39.14.39.29.39S156,238.71,156,238.44Z" transform="translate(0 -58.73)"/><path class="cls-4" d="M225.78,240.09h-3.33l-.3-3.34h3.34Zm-2.83-.56h2.23L225,237.3h-2.23Z" transform="translate(0 -58.73)"/><polygon class="cls-10" points="187.35 179.11 157.28 179.11 157.38 180.26 187.45 180.26 187.35 179.11"/><path class="cls-10" d="M188.45,238.38a1,1,0,0,1-1,1.06,1.19,1.19,0,0,1-1.15-1.06,1,1,0,0,1,1-1.06A1.18,1.18,0,0,1,188.45,238.38Z" transform="translate(0 -58.73)"/><path class="cls-4" d="M188.45,238.38a1,1,0,0,1-1,1.06,1.19,1.19,0,0,1-1.15-1.06,1,1,0,0,1,1-1.06A1.18,1.18,0,0,1,188.45,238.38Z" transform="translate(0 -58.73)"/><path class="cls-21" d="M217.36,163.85a16.72,16.72,0,0,1,12.4,9.67c4.1,8.78,7.37,21.53,10.44,22.87s16.51-11.89,16.51-11.89-2.74-8.75,1.36-10.12,3.28-7.49,7.11-6.2,6,6.75,5.74,9.76-7.38,9.84-7.38,9.84-12.85,22.86-26,20.77-20.21-32.74-20.21-32.74S213.67,163.38,217.36,163.85Z" transform="translate(0 -58.73)"/><path class="cls-11" d="M221,187.07c2.88,7.76,5.25,13.37,10.72,18.35-5.92-9.51-5.28-26.54-5.28-26.54Z" transform="translate(0 -58.73)"/><path class="cls-8" d="M172.41,166.56a140.05,140.05,0,0,1,14.25-3.29l.16.13.25.24,2.11,1.62,5.74,3.45,4.71.74,4.56-1.11,2.92-4.06.54-2.34v-.07a42.67,42.67,0,0,1,14.88,3.33,5.06,5.06,0,0,1,2.92,4.3,151.15,151.15,0,0,0,2,16.1c1.9,11.22-3.92,36.33-6.18,45.38A5.1,5.1,0,0,1,217,234.8a150.27,150.27,0,0,1-38.85.25,5.1,5.1,0,0,1-4.44-5c-.16-14.37-3.67-46.47-5-58A5.12,5.12,0,0,1,172.41,166.56Z" transform="translate(0 -58.73)"/><path class="cls-10" d="M172.41,166.56a140.05,140.05,0,0,1,14.25-3.29l.16.13.25.24,2.11,1.62,5.74,3.45,4.71.74,4.56-1.11,2.92-4.06.54-2.34v-.07a42.67,42.67,0,0,1,14.88,3.33,5.06,5.06,0,0,1,2.92,4.3,151.15,151.15,0,0,0,2,16.1c1.9,11.22-3.92,36.33-6.18,45.38A5.1,5.1,0,0,1,217,234.8a150.27,150.27,0,0,1-38.85.25,5.1,5.1,0,0,1-4.44-5c-.16-14.37-3.67-46.47-5-58A5.12,5.12,0,0,1,172.41,166.56Z" transform="translate(0 -58.73)"/><path class="cls-10" d="M187.08,126c-1.87,5.44-5,11.36-3.64,16.95s7.39,10.78,12.85,12.59c6.33,2.11,13.7,4.39,18.39-.37,2.32-2.35,1-7.09-1.16-9.6a8.17,8.17,0,0,0-9-2.22,22.33,22.33,0,0,0-.54-8.56,14.05,14.05,0,0,0-5.86-9C195,123.79,188.29,122.51,187.08,126Z" transform="translate(0 -58.73)"/><path class="cls-21" d="M189.08,162.86c3.71-3.9,2.22-21.4,2.22-21.4l10.86,7.37s.64,10.83,3.23,12.92c.61.49,1.51.07,2.23.12l-.66,2.76-2,3.42-2.78,2h-4.11L194.36,169,190.15,166l-3.44-2.77C187.51,163.12,188.54,163.42,189.08,162.86Z" transform="translate(0 -58.73)"/><path class="cls-11" d="M203.11,156.08c-7.14-.81-10.42-4.52-11.91-7.45l.31-2.92,10.85,7.37Z" transform="translate(0 -58.73)"/><path class="cls-21" d="M187.05,134.47c2.29,9,3.07,12.87,8.56,16.67,8.27,5.73,18.84.93,19.29-8.57.4-8.57-3.42-21.92-13-23.79a12.68,12.68,0,0,0-14.81,15.69Z" transform="translate(0 -58.73)"/><path class="cls-10" d="M202,134.1c.15.74.65,1.27,1.13,1.18s.77-.77.64-1.51-.66-1.27-1.14-1.19S201.94,133.39,202,134.1Z" transform="translate(0 -58.73)"/><path class="cls-10" d="M210.43,132.52c.14.76.65,1.27,1.13,1.19s.77-.78.63-1.52-.65-1.27-1.13-1.17S210.29,131.78,210.43,132.52Z" transform="translate(0 -58.73)"/><path class="cls-10" d="M210.85,131.1l1.68-.85S211.89,131.82,210.85,131.1Z" transform="translate(0 -58.73)"/><path class="cls-22" d="M208.09,134.36a20.66,20.66,0,0,0,3.56,4.24,3.31,3.31,0,0,1-2.56,1Z" transform="translate(0 -58.73)"/><path class="cls-10" d="M198.35,133.05a.43.43,0,0,0,.41-.32,5.22,5.22,0,0,1,3.08-2.85.45.45,0,0,0,.28-.57.43.43,0,0,0-.55-.28h0a6,6,0,0,0-3.65,3.46.44.44,0,0,0,.3.54h0A.32.32,0,0,0,198.35,133.05Z" transform="translate(0 -58.73)"/><path class="cls-10" d="M212.21,128.18a.49.49,0,0,0,.39-.24.45.45,0,0,0-.18-.6,4.35,4.35,0,0,0-4.1-.18.42.42,0,0,0-.19.56l0,0a.42.42,0,0,0,.59.18h0a3.55,3.55,0,0,1,3.2.19A.58.58,0,0,0,212.21,128.18Z" transform="translate(0 -58.73)"/><path class="cls-10" d="M202.46,132.74l1.69-.85S203.5,133.4,202.46,132.74Z" transform="translate(0 -58.73)"/><path class="cls-10" d="M215.76,116.78a7.23,7.23,0,0,1,2.88,7.51c-.34,1.24-1.07,2.41-1.13,3.7a2.67,2.67,0,0,0,2.44,2.8,16.83,16.83,0,0,1-6.17-.09c-2-.53-3.87-2-3.94-3.86a19.44,19.44,0,0,1,.23-2,2,2,0,0,0-.77-1.84c-1.11-.73-2.58.06-3.92.23-2.45.33-4.87-1.94-4.57-4.09S207,110.22,215.76,116.78Z" transform="translate(0 -58.73)"/><path class="cls-10" d="M206.68,113.68c3.28,1.81,12.07,10.88-11.65,9.39,0,0,.05,14.83-7.4,16.84l-19.52-3.22S175.87,96.66,206.68,113.68Z" transform="translate(0 -58.73)"/><path class="cls-10" d="M170.69,127.69c-1.87,5.43-5,11.36-3.64,16.95s7.39,10.77,12.85,12.59c6.33,2.11,13.7,4.39,18.39-.37,2.31-2.36,1-7.09-1.16-9.61a8.17,8.17,0,0,0-9-2.21,22.32,22.32,0,0,0-.54-8.56,14.08,14.08,0,0,0-5.86-9.06C178.58,125.47,171.9,124.2,170.69,127.69Z" transform="translate(0 -58.73)"/><path class="cls-21" d="M185.9,142a6.74,6.74,0,0,0,4,3.1c2.27.58,3.37-1.46,2.7-3.59-.62-1.91-2.53-4.52-4.79-4.2a3,3,0,0,0-2.44,3.48A3.14,3.14,0,0,0,185.9,142Z" transform="translate(0 -58.73)"/><path class="cls-10" d="M209.87,142.18a9.13,9.13,0,0,1-7.39,0s-.3,4.55,5.1,4.18c.57,0,2.29-.3,2.29-.3A9.55,9.55,0,0,1,209.87,142.18Z" transform="translate(0 -58.73)"/><path class="cls-4" d="M202.72,143.75a4.72,4.72,0,0,1-.24-1.57,9.64,9.64,0,0,0,6.14.46v1.49S205.05,144.76,202.72,143.75Z" transform="translate(0 -58.73)"/><path class="cls-23" d="M203.23,144.75a11.37,11.37,0,0,1,1.19-.07,7.91,7.91,0,0,1,4.81,1.47c-.55.08-1.31.18-1.65.21C205.17,146.52,203.9,145.71,203.23,144.75Z" transform="translate(0 -58.73)"/><path class="cls-8" d="M209.7,161.87s-2.54-.86-3.56,0c0,0,.19,6.59-5.13,7.42s-13.49-6.38-13.49-6.38a4.91,4.91,0,0,0-3.56.56l20.91,22.79C213.26,177.44,209.7,161.87,209.7,161.87Z" transform="translate(0 -58.73)"/><path class="cls-21" d="M171.41,188.34c-2-2.73-6.13-14.08-1.63-20.24S201.41,199,201.41,199c4.58-2.27,25.85-9.4,25.85-9.4s.71-7.43,3.84-9.24,4.57-6.57,7.23-3.75,5.78,10.64,1.68,13.6a89.91,89.91,0,0,1-8.21,5.22S215.43,207,203.54,211,179.81,199.68,171.41,188.34Z" transform="translate(0 -58.73)"/><path class="cls-17" d="M171.41,188.34c-2-2.73-6.13-14.08-1.63-20.24S201.41,199,201.41,199c4.58-2.27,25.85-9.4,25.85-9.4s.71-7.43,3.84-9.24,4.57-6.57,7.23-3.75,5.78,10.64,1.68,13.6a89.91,89.91,0,0,1-8.21,5.22S215.43,207,203.54,211,179.81,199.68,171.41,188.34Z" transform="translate(0 -58.73)"/><path class="cls-17" d="M171.41,188.34c-2-2.73-6.13-14.08-1.63-20.24S201.41,199,201.41,199c4.58-2.27,25.85-9.4,25.85-9.4s.71-7.43,3.84-9.24,4.57-6.57,7.23-3.75,5.78,10.64,1.68,13.6a89.91,89.91,0,0,1-8.21,5.22S215.43,207,203.54,211,179.81,199.68,171.41,188.34Z" transform="translate(0 -58.73)"/><path class="cls-10" d="M222.59,237.07,221.31,231s-33.25,3.45-47.44.29l-1.85,5.8Z" transform="translate(0 -58.73)"/><path class="cls-4" d="M189.83,146.75A1.81,1.81,0,1,1,188,145,1.8,1.8,0,0,1,189.83,146.75Z" transform="translate(0 -58.73)"/></g><g id="Character_2" data-name="Character 2"><g id="Character"><path class="cls-24" d="M302.22,162.28a27,27,0,0,1-3.88,6c1.19,1.23,3.4.77,3.4.77Z" transform="translate(0 -58.73)"/><path class="cls-25" d="M327.34,173.6l-6.65,5-9.08,6.75a9.22,9.22,0,0,1,.83,3.3c.29,2.52.58,4.39-5.05,5.86a3.17,3.17,0,0,0-2.42,2.45c-.24,1.49.64,3.3,5.8,4.26a23.79,23.79,0,0,0,14.65-2.27c2.21-1.07,2.23-2.39,1.34-4.62C324.09,187.91,325.54,179.86,327.34,173.6Z" transform="translate(0 -58.73)"/><path class="cls-10" d="M300.46,161.58c-.2.78,0,1.5.38,1.6s.89-.45,1.09-1.23,0-1.5-.38-1.61S300.65,160.79,300.46,161.58Z" transform="translate(0 -58.73)"/><path class="cls-10" d="M306.36,160.4a.5.5,0,0,1-.43-.25,4.86,4.86,0,0,0-4-2.4.5.5,0,0,1,0-1h0a5.92,5.92,0,0,1,4.88,2.9.52.52,0,0,1-.19.69A.54.54,0,0,1,306.36,160.4Z" transform="translate(0 -58.73)"/><path class="cls-25" d="M300.41,172.64a14.62,14.62,0,0,0,6.83,11,13.46,13.46,0,0,0,4.19,1.73A12.44,12.44,0,0,0,321.86,183c5.79-4.38,6.46-10.31,8.47-20.27a14.12,14.12,0,0,0-17-16.67C303,148.54,299.51,163.27,300.41,172.64Z" transform="translate(0 -58.73)"/><path class="cls-14" d="M307.24,183.61a13.46,13.46,0,0,0,4.19,1.73l.18,0-.63-2S310.12,184.77,307.24,183.61Z" transform="translate(0 -58.73)"/><path class="cls-10" d="M333.23,169.9c-1.68,3.43-3.76,6.87-6.93,9-1.17.8-10.05.21-10.05.21.09-3-3.73-13.4-5.57-16.89-.58,1.43.24,3.39-.49,4.71-1-.19-18.79-6.59-10.95-19.38,5.54-9,20.4-9.82,26.57-.92a7.5,7.5,0,0,1,7.43,2.22,12.39,12.39,0,0,1,3,7.44C336.69,161,335.29,165.66,333.23,169.9Z" transform="translate(0 -58.73)"/></g><path class="cls-25" d="M316.77,164.78a9.29,9.29,0,0,1-2.87,6c-2.14,2-4.82-.12-5.15-3-.3-2.57.95-6.33,3.56-7.23S317,162,316.77,164.78Z" transform="translate(0 -58.73)"/><polygon class="cls-25" points="230.76 330.8 221.55 326.28 228.36 303.84 239.58 310.11 230.76 330.8"/><polygon class="cls-26" points="242 303.94 230.19 297.13 225.51 313.3 236.17 318.32 242 303.94"/><path class="cls-10" d="M221,383.22l10.55,4.87a.86.86,0,0,1,.41,1.09l-3.45,10.25a1.91,1.91,0,0,1-2.45,1.24c-3.64-1.77-5.31-2.83-9.94-5-2.86-1.31-9.37-4.42-13.43-5.89s-2.38-6.24-.52-6.05c8.37.89,13.29.69,16.93-.58A2.54,2.54,0,0,1,221,383.22Z" transform="translate(0 -58.73)"/><path class="cls-8" d="M215.57,383.92a13.11,13.11,0,0,0,2.61.72.21.21,0,0,0,.23-.1.24.24,0,0,0,.06-.25c-.21-.34-2.13-3.3-3.47-3.35a.85.85,0,0,0-.77.4,1.33,1.33,0,0,0-.24,1.34A2.8,2.8,0,0,0,215.57,383.92Zm2.2.16c-1.83-.44-3.07-1-3.32-1.6a.86.86,0,0,1,.2-.84.45.45,0,0,1,.38-.22C215.73,381.44,217,382.91,217.77,384.08Z" transform="translate(0 -58.73)"/><path class="cls-8" d="M218.19,384.64l.11,0a.29.29,0,0,0,.2-.14c0-.12,1.43-2.75.86-4.07a1.18,1.18,0,0,0-.81-.71.91.91,0,0,0-1.08.33c-.66.94-.08,3.52.62,4.48A.16.16,0,0,0,218.19,384.64Zm.34-4.39a.7.7,0,0,1,.39.4,5.33,5.33,0,0,1-.66,3.27,4.92,4.92,0,0,1-.4-3.57c0-.13.21-.24.55-.14Z" transform="translate(0 -58.73)"/><path class="cls-8" d="M300.92,273.54s-54.28-9.34-61.11,20.35c-5.27,20.79-7.82,29.25-14.53,75.35l14.33,3.23s23.1-47.22,24.45-67.3c16.2,2.74,53.06,10.42,60.91-3.29a65.74,65.74,0,0,0,7.75-22.52Z" transform="translate(0 -58.73)"/><g class="cls-27"><path d="M300.92,273.54s-54.28-9.34-61.11,20.35c-5.27,20.79-7.82,29.25-14.53,75.35l14.33,3.23s23.1-47.22,24.45-67.3c16.2,2.74,53.06,10.42,60.91-3.29a65.74,65.74,0,0,0,7.75-22.52Z" transform="translate(0 -58.73)"/></g><polygon class="cls-8" points="241.44 316.93 223.09 310.51 224.81 302.2 243.63 309.85 241.44 316.93"/><polygon class="cls-25" points="192.77 327.48 183.09 322.11 192.71 303.51 204.64 308.37 192.77 327.48"/><polygon class="cls-26" points="207.97 302.65 197.34 294.11 190.25 309.38 200.01 315.97 207.97 302.65"/><path class="cls-10" d="M184.08,378.49l9.69,6.42A.85.85,0,0,1,194,386l-5,9.61a1.9,1.9,0,0,1-2.61.85c-3.33-2.3-4.81-3.6-9.07-6.43-2.62-1.73-8.58-5.79-12.37-7.87s-1.4-6.52.41-6.05c8.14,2.15,13,2.71,16.82,2A2.54,2.54,0,0,1,184.08,378.49Z" transform="translate(0 -58.73)"/><path class="cls-8" d="M178.61,378.35a13,13,0,0,0,2.47,1.1.2.2,0,0,0,.24-.06.23.23,0,0,0,.1-.23c-.15-.38-1.6-3.59-2.92-3.84a.87.87,0,0,0-.83.27,1.39,1.39,0,0,0-.44,1.29A2.87,2.87,0,0,0,178.61,378.35Zm2.15.49c-1.74-.72-2.88-1.42-3-2.08a.87.87,0,0,1,.33-.81.44.44,0,0,1,.4-.15C179.15,375.92,180.14,377.56,180.76,378.84Z" transform="translate(0 -58.73)"/><path class="cls-8" d="M181.09,379.46l.1,0a.26.26,0,0,0,.22-.1c.05-.11,1.83-2.5,1.47-3.89a1.18,1.18,0,0,0-.69-.83.91.91,0,0,0-1.12.16c-.79.83-.62,3.46-.07,4.52A.18.18,0,0,0,181.09,379.46Zm1-4.29a.71.71,0,0,1,.33.46,5.23,5.23,0,0,1-1.16,3.12,4.87,4.87,0,0,1,.16-3.58c.05-.12.25-.2.57-.06Z" transform="translate(0 -58.73)"/><path class="cls-8" d="M283.81,270.65c-.38-.07-59.51-16.06-69.31,17.44-13.44,40.77-23.41,75.38-23.41,75.38l11.6,8.41s29.59-40.94,34-69c18.48-2.08,62.64,14.11,70.49.41,6.43-11.2,6.74-27.54,6.74-27.54Z" transform="translate(0 -58.73)"/><path class="cls-16" d="M283.81,270.65c-.38-.07-59.51-16.06-69.31,17.44-13.44,40.77-23.41,75.38-23.41,75.38l11.6,8.41s29.59-40.94,34-69c18.48-2.08,62.64,14.11,70.49.41,6.43-11.2,6.74-27.54,6.74-27.54Z" transform="translate(0 -58.73)"/><polygon class="cls-8" points="204.41 315.31 188.72 304.81 191.26 298.09 208.12 307.29 204.41 315.31"/><path class="cls-8" d="M338.8,202.24c-1,4-2.21,7.95-3.52,11.9S332.47,222,330.71,226a64,64,0,0,1-6.61,11.68,27.09,27.09,0,0,1-5.45,5.66,17.1,17.1,0,0,1-4.2,2.38,13.87,13.87,0,0,1-2.67.72l-.73.12c-.38,0-.8.06-1.17.06a9.74,9.74,0,0,1-1.87-.21,13,13,0,0,1-2.65-.85,15.7,15.7,0,0,1-2-1,30.82,30.82,0,0,1-3.06-2.17C298.6,241,292.26,231,287.75,224l5.37-4.48c5.82,5.27,11.73,10.69,17.65,15.32,1.52,1.08-4.89-3.25-3.46-2.33a16.55,16.55,0,0,0,2,1.07c.57.26,1.13.39,1,.29a1.21,1.21,0,0,0-.38-.06,3.09,3.09,0,0,0-.43,0h0a1.39,1.39,0,0,0,.21-.1,5.69,5.69,0,0,0,.93-.68,17,17,0,0,0,2.65-3.15,54.66,54.66,0,0,0,4.76-9.41c1.46-3.48,2.65-7,3.8-10.69s2.22-7.37,3.19-11.15S339.84,198.22,338.8,202.24Z" transform="translate(0 -58.73)"/><path class="cls-28" d="M338.8,202.24c-1,4-2.21,7.95-3.52,11.9S332.47,222,330.71,226a64,64,0,0,1-6.61,11.68,27.09,27.09,0,0,1-5.45,5.66,17.1,17.1,0,0,1-4.2,2.38,13.87,13.87,0,0,1-2.67.72l-.73.12c-.38,0-.8.06-1.17.06a9.74,9.74,0,0,1-1.87-.21,13,13,0,0,1-2.65-.85,15.7,15.7,0,0,1-2-1,30.82,30.82,0,0,1-3.06-2.17C298.6,241,292.26,231,287.75,224l5.37-4.48c5.82,5.27,11.73,10.69,17.65,15.32,1.52,1.08-4.89-3.25-3.46-2.33a16.55,16.55,0,0,0,2,1.07c.57.26,1.13.39,1,.29a1.21,1.21,0,0,0-.38-.06,3.09,3.09,0,0,0-.43,0h0a1.39,1.39,0,0,0,.21-.1,5.69,5.69,0,0,0,.93-.68,17,17,0,0,0,2.65-3.15,54.66,54.66,0,0,0,4.76-9.41c1.46-3.48,2.65-7,3.8-10.69s2.22-7.37,3.19-11.15S339.84,198.22,338.8,202.24Z" transform="translate(0 -58.73)"/><path class="cls-25" d="M293.52,220.12l-5.13-10.89-9.75,5.57s6.31,10.11,9.86,9.11Z" transform="translate(0 -58.73)"/><path class="cls-25" d="M280.43,206.65,276,208.5a1.72,1.72,0,0,0-.59,2.79l3.31,3.46,9.75-5.57-6.73-2.54A1.74,1.74,0,0,0,280.43,206.65Z" transform="translate(0 -58.73)"/><path class="cls-25" d="M243.58,240.16l-10.5-1.28-3.49,11s12,.3,14-2.94Z" transform="translate(0 -58.73)"/><path class="cls-25" d="M225.25,242.63l-2,4.19a2,2,0,0,0,1.66,2.8l4.65.29,3.49-11-6.79,2.76A2,2,0,0,0,225.25,242.63Z" transform="translate(0 -58.73)"/><path class="cls-8" d="M342.14,201.66c-.47-2.44-4.1-5.41-6.56-5.82l-1.63-.28a90.71,90.71,0,0,0-9.94-1,178.63,178.63,0,0,0-20,0c-3.09.29-6.12.79-8.53,1.26h-.09a6.26,6.26,0,0,0-4.94,5.94c-.23,7.55-.81,22.89-2.17,38-1.05,11.81-3.38,23.32-4.43,31.32l48.92,8.26c3.3-9.28,4.44-17.67,7.49-34.91C342.05,234.06,344.09,211.7,342.14,201.66Z" transform="translate(0 -58.73)"/><path class="cls-28" d="M342.14,201.66c-.47-2.44-4.1-5.41-6.56-5.82l-1.63-.28a90.71,90.71,0,0,0-9.94-1,178.63,178.63,0,0,0-20,0c-3.09.29-6.12.79-8.53,1.26h-.09a6.26,6.26,0,0,0-4.94,5.94c-.23,7.55-.81,22.89-2.17,38-1.05,11.81-3.38,23.32-4.43,31.32l48.92,8.26c3.3-9.28,4.44-17.67,7.49-34.91C342.05,234.06,344.09,211.7,342.14,201.66Z" transform="translate(0 -58.73)"/><path class="cls-8" d="M295.23,197a7.8,7.8,0,0,1,4,10.33c-4,9-10.7,23.19-13.58,28.17-1.09,1.76-2.19,3.52-3.42,5.28-.61.89-1.3,1.76-2,2.67-.4.45-.72.87-1.19,1.35l-.67.7-.38.39a9.87,9.87,0,0,1-3.73,2.17,17.09,17.09,0,0,1-2.24.57,24.48,24.48,0,0,1-3.73.31c-2.16,0-17,1.33-24.58-1.32l-.4-8.17c7.56.6,20.75-3.49,22.45-3.67a13.91,13.91,0,0,0,2-.41,3,3,0,0,0,.62-.26c.07,0,0-.08-.31.13a1.83,1.83,0,0,0-.31.24l.11-.14.31-.37c.21-.22.45-.58.68-.87.45-.62.91-1.29,1.37-2,.91-1.42,1.79-3,2.66-4.59,1.73-3.19,3.33-6.57,4.89-10,1.1-2.42,4.36-9.78,7.13-16.37A7.81,7.81,0,0,1,295.23,197Z" transform="translate(0 -58.73)"/><path class="cls-26" d="M288.6,228.79c.14,4.47.08,3,.24,7.71,13.06-18.07,9.7-30.62,9.7-30.62Z" transform="translate(0 -58.73)"/><path class="cls-28" d="M295.23,197a7.8,7.8,0,0,1,4,10.33c-4,9-10.7,23.19-13.58,28.17-1.09,1.76-2.19,3.52-3.42,5.28-.61.89-1.3,1.76-2,2.67-.4.45-.72.87-1.19,1.35l-.67.7-.38.39a9.87,9.87,0,0,1-3.73,2.17,17.09,17.09,0,0,1-2.24.57,24.48,24.48,0,0,1-3.73.31c-2.16,0-17,1.33-24.58-1.32l-.4-8.17c7.56.6,20.75-3.49,22.45-3.67a13.91,13.91,0,0,0,2-.41,3,3,0,0,0,.62-.26c.07,0,0-.08-.31.13a1.83,1.83,0,0,0-.31.24l.11-.14.31-.37c.21-.22.45-.58.68-.87.45-.62.91-1.29,1.37-2,.91-1.42,1.79-3,2.66-4.59,1.73-3.19,3.33-6.57,4.89-10,1.1-2.42,4.36-9.78,7.13-16.37A7.81,7.81,0,0,1,295.23,197Z" transform="translate(0 -58.73)"/><path class="cls-29" d="M309.92,162a7.86,7.86,0,0,0-2.65,5.46c-.13,2.77,2.56,3.52,4.89,2.22,2.12-1.18,4.71-4,3.73-6.56S311.88,160.26,309.92,162Z" transform="translate(0 -58.73)"/><path class="cls-8" d="M318.82,166.32c-.2,4.54-2.94,8.11-7.48,7.91s-7-4-6.76-8.54,2.95-8.11,7.49-7.91S319,161.78,318.82,166.32Z" transform="translate(0 -58.73)"/><path class="cls-30" d="M318.82,166.32c-.2,4.54-2.94,8.11-7.48,7.91s-7-4-6.76-8.54,2.95-8.11,7.49-7.91S319,161.78,318.82,166.32Z" transform="translate(0 -58.73)"/><path class="cls-8" d="M316.73,166.23c-.15,3.21-2.08,5.72-5.29,5.58s-4.91-2.82-4.76-6,2.07-5.72,5.28-5.58S316.87,163,316.73,166.23Z" transform="translate(0 -58.73)"/><path class="cls-13" d="M316.73,166.23c-.15,3.21-2.08,5.72-5.29,5.58s-4.91-2.82-4.76-6,2.07-5.72,5.28-5.58S316.87,163,316.73,166.23Z" transform="translate(0 -58.73)"/><path class="cls-8" d="M311.47,157c.93-3.82,4.61-14,12.24-15.42a2.16,2.16,0,0,1,2,.72l.91,1a2.19,2.19,0,0,1-.6,3.35,23.6,23.6,0,0,0-10.7,11.53,1.6,1.6,0,0,1-1.88.92l-.85-.23A1.59,1.59,0,0,1,311.47,157Z" transform="translate(0 -58.73)"/><path class="cls-12" d="M311.47,157c.93-3.82,4.61-14,12.24-15.42a2.16,2.16,0,0,1,2,.72l.91,1a2.19,2.19,0,0,1-.6,3.35,23.6,23.6,0,0,0-10.7,11.53,1.6,1.6,0,0,1-1.88.92l-.85-.23A1.59,1.59,0,0,1,311.47,157Z" transform="translate(0 -58.73)"/><rect class="cls-10" x="251.26" y="210.02" width="6.5" height="27.74"/><rect class="cls-10" x="251.26" y="210.02" width="6.5" height="27.74"/><path class="cls-10" d="M276.59,277.22a67,67,0,0,0-44.19,0,6.27,6.27,0,0,1-7.78-3h0c-1.33-2.8.45-6.43,4.06-7.69a78.21,78.21,0,0,1,51.61,0c3.6,1.25,5.38,4.89,4.06,7.69h0A6.3,6.3,0,0,1,276.59,277.22Z" transform="translate(0 -58.73)"/><path class="cls-31" d="M276.59,277.22a67,67,0,0,0-44.19,0,6.27,6.27,0,0,1-7.78-3h0c-1.33-2.8.45-6.43,4.06-7.69a78.21,78.21,0,0,1,51.61,0c3.6,1.25,5.38,4.89,4.06,7.69h0A6.3,6.3,0,0,1,276.59,277.22Z" transform="translate(0 -58.73)"/><path class="cls-10" d="M269.81,407.94a5.06,5.06,0,1,1-5.06-5.06,5.06,5.06,0,0,1,5.06,5.06Z" transform="translate(0 -58.73)"/><path class="cls-10" d="M344.11,407.94a5.06,5.06,0,1,0,5.05-5.06,5,5,0,0,0-5.05,5.06Z" transform="translate(0 -58.73)"/><path class="cls-10" d="M300.29,406.32a5.06,5.06,0,1,0,5-5.06,5.06,5.06,0,0,0-5,5.06Z" transform="translate(0 -58.73)"/><path class="cls-10" d="M360.19,401.14a2.47,2.47,0,0,1-2.5,2l-52.75-.72-49.41,1.12a2.46,2.46,0,0,1-.54-4.87l27-5.24a46.57,46.57,0,0,1,8.49-.79h29a46.3,46.3,0,0,1,8.48.79l30.32,4.86A2.45,2.45,0,0,1,360.19,401.14Z" transform="translate(0 -58.73)"/><rect class="cls-10" x="295.96" y="289.87" width="17.94" height="51.65"/><rect class="cls-10" x="298.54" y="257.14" width="12.79" height="32.98"/><polygon class="cls-26" points="298.54 263.26 311.33 266.48 311.33 257.14 298.54 257.14 298.54 263.26"/><path class="cls-8" d="M299.79,292.41v23.32h-68.1a8.36,8.36,0,0,1-7.2-12.64,21.76,21.76,0,0,1,18.71-10.68Z" transform="translate(0 -58.73)"/><path class="cls-12" d="M299.79,292.41v23.32h-68.1a8.36,8.36,0,0,1-7.2-12.64,21.76,21.76,0,0,1,18.71-10.68Z" transform="translate(0 -58.73)"/><path class="cls-8" d="M313.5,206.05a14.57,14.57,0,0,0-.33,2.28l-7.49,107H295.35l7.48-107a2.13,2.13,0,0,1,0-.25Z" transform="translate(0 -58.73)"/><path class="cls-12" d="M313.5,206.05a14.57,14.57,0,0,0-.33,2.28l-7.49,107H295.35l7.48-107a2.13,2.13,0,0,1,0-.25Z" transform="translate(0 -58.73)"/><path class="cls-10" d="M361,315.75v.12h-1.74A12.5,12.5,0,0,0,361,315.75Z" transform="translate(0 -58.73)"/><path class="cls-8" d="M384,205.37l.12-12.72a14.09,14.09,0,0,0-3.52-9.58l-7.51-8.47-2.69-21.19a6.44,6.44,0,0,0-6.5-5.68H345.24a7.67,7.67,0,0,0-7,4.75l-9.41,22.79-15.56,9.19a16.63,16.63,0,0,0-7.81,10.69l-2.84,13,.22,0,10.64-2a14.57,14.57,0,0,0-.33,2.28l-7.49,107h58.57a12.65,12.65,0,0,0,1.75-.12h0a13.2,13.2,0,0,0,11.16-12l6.7-95.89a15.74,15.74,0,0,0,0-2.06Zm-48.95-8.09L316.84,199l-.79.08,2.52-8.28L331.08,185l4.17-1.94.66,1.94.11.33.61,1.79Zm35.78.22h0l-2.23-.58c0-.7-.08-1.42-.12-2.13-.23-4-.42-7.7-.42-7.7l.27-1.31.56-2.75,8.08,7.78v8.28Z" transform="translate(0 -58.73)"/></g></svg>