<svg version="1.1" id="Layer_1" xmlns="http://www.w3.org/2000/svg" xmlns:xlink="http://www.w3.org/1999/xlink" x="0px" y="0px" width="583.565px" height="300px" viewBox="0 0 583.565 300" enable-background="new 0 0 583.565 300" xml:space="preserve">
                            <g>
                                <path fill-rule="evenodd" clip-rule="evenodd" fill="#03A6EA" d="M0,272.745c4.759-12.909,14.81-15.793,27.439-15.781
                                c176.479,0.167,352.957,0.113,529.435,0.113c1.505,0,3.01-0.031,4.514,0.007c14.006,0.359,22.355,8.523,22.175,21.666
                                c-0.182,13.173-8.643,21.062-22.739,21.063c-136.369,0.014-272.738,0.008-409.108,0.008c-40.61,0-81.223-0.295-121.828,0.171
                                c-13.12,0.15-24.199-1.71-29.887-15.215C0,280.768,0,276.756,0,272.745z"></path>
                                <path fill-rule="evenodd" clip-rule="evenodd" fill="#01A6EA" d="M85.232,0c5.359,2.215,11.223,2.272,16.724,3.949
                                c7.702,2.346,15.236,4.963,21.47,10.307c8.037,6.889,9.869,16.592,5.01,26.245c-4.397,8.735-12.833,12.338-23.232,9.896
                                c-9.712-2.277-18.689-7.19-28.869-7.851c-7.007-0.456-13.687,0.35-19.684,4.219c-11.403,7.355-11.119,20.797,0.633,27.427
                                c8.798,4.966,18.671,7.05,28.217,9.969c8.134,2.487,16.255,4.994,23.993,8.558c37.553,17.297,48.993,61.464,24.366,94.881
                                c-13.449,18.248-32.445,26.863-54.475,28.775c-16.381,1.422-32.657-0.344-48.597-4.663c-13.06-3.538-24.71-8.99-30.788-22.193
                                c0-4.012,0-8.022,0-12.034c1.455-0.603,1.438-2.126,1.991-3.269c3.446-7.122,9.043-10.964,16.993-11.171
                                c4.381-0.114,8.595,0.814,12.783,2.091c8.452,2.575,16.616,6.067,25.295,7.905c10.214,2.163,20.294,2.32,29.728-2.893
                                c8.221-4.543,11.942-11.94,11.952-21.132c0.009-8.552-5.659-13.122-12.552-16.563c-6.448-3.22-13.362-5.158-20.247-7.174
                                c-14.558-4.262-29.35-7.921-42.406-16.122C12.094,101.971,4.485,92.002,2.01,78.562C-4.351,44.023,16.005,12.65,50.8,3.017
                                C54.581,1.97,58.654,2.025,62.17,0C69.857,0,77.545,0,85.232,0z"></path>
                                <path fill-rule="evenodd" clip-rule="evenodd" fill="#02A6EA" d="M323.64,135.032c0.951-1.78,0.465-3.617,0.467-5.363
                                c0.035-33.584,0.024-67.167,0.031-100.751c0-2.005-0.057-4.021,0.127-6.011c1.293-14.03,9.692-21.503,23.522-20.996
                                c12.329,0.453,20.288,9.042,20.312,22.606c0.1,55.473,0.068,110.945,0.037,166.417c-0.007,12.03-4.598,19.512-13.634,22.703
                                c-9.425,3.331-20.358-0.085-27.146-8.951c-13.3-17.372-26.401-34.895-39.582-52.356c-16.5-21.861-32.996-43.726-49.504-65.582
                                c-0.897-1.188-1.883-2.31-2.992-3.66c-1.598,1.688-0.912,3.596-0.914,5.261c-0.049,33.584-0.044,67.168-0.026,100.752
                                c0.002,3.689-0.183,7.367-1.196,10.914c-3.007,10.521-11.933,15.911-24.168,14.717c-10.055-0.98-17.372-8.372-18.428-18.667
                                c-0.155-1.493-0.165-3.005-0.165-4.507c-0.008-55.472-0.037-110.944,0.014-166.417c0.016-15.125,9.321-24.477,23.182-23.121
                                c7.89,0.771,13.919,5.074,18.634,11.423c17.824,23.999,35.719,47.945,53.592,71.907c11.583,15.528,23.168,31.056,34.779,46.563
                                C321.426,133.039,321.936,134.557,323.64,135.032z"></path>
                                <path fill-rule="evenodd" clip-rule="evenodd" fill="#01A6EA" d="M495.597,138.284c5.521-14.865,10.661-28.705,15.801-42.546
                                c9.636-25.939,19.179-51.914,28.956-77.8c3.389-8.969,9.16-15.647,19.637-16.008c17.018-0.586,27.725,14.211,21.666,30.65
                                c-7.838,21.27-16.35,42.289-24.601,63.404c-12.863,32.918-25.744,65.826-38.64,98.731c-1.033,2.636-2.126,5.259-3.356,7.809
                                c-3.909,8.104-10.164,12.393-19.413,12.451c-9.456,0.06-16.203-4.105-19.771-12.598c-6.39-15.21-12.366-30.597-18.389-45.958
                                c-15.641-39.887-31.205-79.804-46.824-119.697c-2.025-5.17-3.742-10.365-2.948-16.037c1.278-9.116,7.626-15.978,16.896-18.271
                                c8.851-2.189,16.864,0.883,22.335,8.578c1.947,2.74,3.281,5.772,4.448,8.923c13.946,37.675,27.934,75.335,41.923,112.994
                                C493.871,134.403,494.557,135.845,495.597,138.284z"></path>
                            </g>
                        </svg>